<svg xmlns="http://www.w3.org/2000/svg" xmlns:xlink="http://www.w3.org/1999/xlink" width="500" zoomAndPan="magnify" viewBox="0 0 375 374.999991" height="500" preserveAspectRatio="xMidYMid meet" version="1.0"><defs><g/><clipPath id="147ec9782e"><path d="M 134.246094 99 L 220 99 L 220 185 L 134.246094 185 Z M 134.246094 99 " clip-rule="nonzero"/></clipPath><clipPath id="80ac667868"><path d="M 203 101 L 240.746094 101 L 240.746094 127 L 203 127 Z M 203 101 " clip-rule="nonzero"/></clipPath><clipPath id="b8abe6d45f"><path d="M 140 103.371094 L 217 103.371094 L 217 180.621094 L 140 180.621094 Z M 140 103.371094 " clip-rule="nonzero"/></clipPath><clipPath id="e3012a477b"><path d="M 201 105 L 234.945312 105 L 234.945312 129 L 201 129 Z M 201 105 " clip-rule="nonzero"/></clipPath></defs><path fill="#ffffff" d="M 170.042969 151.921875 C 170.238281 152.054688 170.433594 152.195312 170.636719 152.320312 C 172.554688 153.519531 174.554688 154.027344 176.277344 153.761719 C 178.371094 153.425781 179.808594 151.914062 180.113281 149.703125 C 180.332031 148.152344 179.214844 146.035156 177.894531 143.875 L 170.042969 151.921875 " fill-opacity="1" fill-rule="nonzero"/><path fill="#ffffff" d="M 179.917969 130.261719 C 179.035156 130.589844 178.347656 131.003906 177.878906 131.488281 C 176.371094 133.070312 176.957031 135.101562 178.566406 137.964844 L 186.152344 130.191406 C 184.09375 129.605469 181.984375 129.503906 179.917969 130.261719 " fill-opacity="1" fill-rule="nonzero"/><path fill="#ffffff" d="M 196.652344 136.410156 C 194.636719 134.851562 192.28125 133.039062 189.773438 131.691406 L 180.515625 141.1875 C 182.367188 144.15625 184.140625 147.214844 183.726562 150.210938 C 183.1875 154.035156 180.554688 156.769531 176.839844 157.351562 C 174.257812 157.765625 171.371094 157.066406 168.714844 155.417969 C 168.285156 155.152344 167.859375 154.871094 167.453125 154.574219 L 164.101562 158.015625 L 161.488281 155.472656 L 164.648438 152.242188 C 164.40625 152.015625 164.15625 151.789062 163.921875 151.546875 C 161.792969 149.429688 159.878906 146.964844 157.882812 144.304688 L 160.792969 142.117188 C 162.917969 144.949219 164.945312 147.527344 167.1875 149.632812 L 175.921875 140.679688 C 173.679688 136.902344 171.792969 132.585938 175.242188 128.980469 C 176.101562 128.082031 177.246094 127.367188 178.660156 126.84375 C 182.242188 125.53125 185.738281 126.03125 188.960938 127.3125 L 193.355469 122.800781 L 195.964844 125.351562 L 192.40625 128.996094 C 194.839844 130.410156 197.035156 132.105469 198.875 133.523438 Z M 210.050781 117.132812 C 210.691406 117.773438 211.417969 118.265625 211.910156 118.570312 C 212.550781 118.960938 213.246094 119.3125 213.992188 119.617188 C 213.882812 117.929688 213.773438 116.070312 213.644531 114.027344 L 213.488281 111.375 C 213.449219 110.59375 213.425781 110.171875 213.410156 110.015625 C 213.394531 109.9375 213.378906 109.84375 213.363281 109.726562 C 213.113281 107.640625 211.425781 106.035156 209.34375 105.917969 L 185.261719 104.496094 C 183.992188 104.417969 182.75 104.894531 181.84375 105.800781 L 142.773438 144.878906 C 141.039062 146.597656 141.023438 149.398438 142.726562 151.101562 L 168.230469 176.601562 C 169.933594 178.308594 172.726562 178.285156 174.453125 176.554688 L 213.921875 137.089844 C 214.34375 136.667969 214.601562 136.140625 214.648438 135.609375 L 214.65625 135.507812 C 214.882812 134.109375 214.757812 131.605469 214.445312 126.5625 C 212.277344 125.976562 210.269531 125.148438 208.53125 124.078125 C 207.367188 123.371094 206.34375 122.566406 205.476562 121.699219 C 204.488281 120.714844 203.730469 119.640625 203.167969 118.523438 C 200.203125 117.03125 199.039062 112.792969 201.800781 110.039062 C 203.910156 107.929688 207.296875 108.054688 209.28125 110.039062 C 211.230469 111.988281 211.238281 114.886719 209.832031 116.875 C 209.902344 116.960938 209.964844 117.046875 210.050781 117.132812 " fill-opacity="1" fill-rule="nonzero"/><g clip-path="url(#147ec9782e)"><path fill="#ffffff" d="M 216.804688 127.09375 C 217.109375 131.933594 217.203125 134.273438 216.960938 135.828125 C 216.859375 136.910156 216.359375 137.933594 215.5625 138.730469 L 176.09375 178.199219 C 173.460938 180.832031 169.191406 180.855469 166.585938 178.246094 L 141.085938 152.742188 C 138.472656 150.132812 138.496094 145.863281 141.132812 143.226562 L 180.199219 104.160156 C 181.578125 102.78125 183.46875 102.0625 185.402344 102.171875 L 209.476562 103.597656 C 212.683594 103.785156 215.289062 106.246094 215.679688 109.453125 C 215.679688 109.476562 215.679688 109.492188 215.679688 109.5 C 215.71875 109.648438 215.734375 109.882812 215.8125 111.242188 L 215.96875 113.894531 C 216.109375 116.328125 216.242188 118.46875 216.367188 120.402344 C 217.273438 120.636719 218.222656 120.808594 219.199219 120.925781 C 219.011719 118.25 218.792969 115.136719 218.558594 111.464844 C 218.160156 105.339844 218.300781 107.3125 218.207031 106.542969 C 217.835938 103.582031 215.429688 101.257812 212.417969 101.070312 L 185.308594 99.304688 C 183.507812 99.1875 181.742188 99.851562 180.46875 101.125 L 136.753906 144.847656 C 134.304688 147.292969 134.304688 151.257812 136.753906 153.707031 L 165.625 182.578125 C 168.074219 185.023438 172.035156 185.023438 174.484375 182.578125 L 214.78125 142.28125 L 216.734375 140.316406 L 218.636719 138.417969 C 219.308594 137.753906 219.746094 136.886719 219.816406 135.945312 C 219.824219 135.9375 219.824219 135.929688 219.824219 135.921875 C 220.058594 134.421875 219.964844 132.011719 219.660156 127.445312 C 218.691406 127.375 217.734375 127.257812 216.804688 127.09375 " fill-opacity="1" fill-rule="nonzero"/></g><g clip-path="url(#80ac667868)"><path fill="#ffffff" d="M 237.808594 107.238281 C 237.003906 106.433594 236.050781 105.691406 234.957031 105.019531 C 231.46875 102.875 226.878906 101.703125 222.023438 101.703125 C 220.832031 101.703125 219.871094 102.664062 219.871094 103.863281 C 219.871094 104.457031 220.113281 104.996094 220.503906 105.378906 C 220.886719 105.769531 221.433594 106.011719 222.023438 106.011719 C 226.09375 106.011719 229.878906 106.964844 232.703125 108.6875 C 233.304688 109.054688 234.070312 109.59375 234.761719 110.289062 C 235.738281 111.257812 236.566406 112.550781 236.566406 114.089844 C 236.566406 116.726562 234.140625 118.601562 232.703125 119.484375 C 229.886719 121.214844 226.09375 122.167969 222.023438 122.167969 C 221.089844 122.167969 220.175781 122.113281 219.277344 122.011719 C 218.300781 121.902344 217.351562 121.746094 216.445312 121.519531 C 215.617188 121.324219 214.828125 121.082031 214.070312 120.792969 C 213.089844 120.425781 212.175781 119.996094 211.347656 119.484375 C 210.746094 119.117188 209.980469 118.585938 209.289062 117.890625 C 209.226562 117.828125 209.171875 117.765625 209.109375 117.695312 C 208.570312 117.125 208.09375 116.460938 207.804688 115.710938 C 208.359375 115.199219 208.71875 114.472656 208.71875 113.660156 C 208.71875 112.136719 207.476562 110.890625 205.945312 110.890625 C 204.417969 110.890625 203.175781 112.136719 203.175781 113.660156 C 203.175781 113.738281 203.191406 113.800781 203.199219 113.878906 C 203.191406 113.941406 203.175781 114.011719 203.175781 114.089844 C 203.175781 115.820312 203.699219 117.484375 204.675781 119.007812 C 205.113281 119.671875 205.625 120.324219 206.234375 120.933594 C 207.039062 121.746094 207.992188 122.488281 209.09375 123.160156 C 210.652344 124.117188 212.441406 124.867188 214.367188 125.421875 C 215.132812 125.640625 215.921875 125.84375 216.734375 125.992188 C 217.65625 126.164062 218.613281 126.28125 219.582031 126.359375 C 220.386719 126.429688 221.199219 126.476562 222.023438 126.476562 C 226.878906 126.476562 231.46875 125.296875 234.957031 123.160156 C 238.773438 120.824219 240.875 117.601562 240.875 114.089844 C 240.875 111.589844 239.804688 109.234375 237.808594 107.238281 " fill-opacity="1" fill-rule="nonzero"/></g><path stroke-linecap="butt" transform="matrix(1.104731, 0, 0, 1.104731, 95.554753, 180.200275)" fill="none" stroke-linejoin="miter" d="M 17.84577 13.919992 C 19.154063 13.919992 20.38103 14.178115 21.526671 14.694361 C 22.679384 15.203534 23.683587 15.900112 24.535746 16.791166 C 25.391441 17.678684 26.066803 18.721783 26.561833 19.920462 C 27.063934 21.115606 27.314985 22.395612 27.314985 23.76048 C 27.314985 25.128884 27.063934 26.412426 26.561833 27.611106 C 26.066803 28.809785 25.391441 29.863492 24.535746 30.76869 C 23.683587 31.663279 22.679384 32.370465 21.526671 32.886711 C 20.38103 33.402956 19.154063 33.661079 17.84577 33.661079 L 10.614797 33.661079 L 10.614797 46.998599 L 3.574764 46.998599 L 3.574764 13.919992 Z M 16.912285 27.211546 C 17.817483 27.211546 18.602459 26.879169 19.270749 26.210878 C 19.939039 25.542588 20.274953 24.725789 20.274953 23.76048 C 20.274953 22.826995 19.939039 22.024339 19.270749 21.356049 C 18.602459 20.687759 17.817483 20.355381 16.912285 20.355381 L 10.614797 20.355381 L 10.614797 27.211546 Z M 61.652383 23.76048 C 61.652383 24.817723 61.503874 25.81839 61.210392 26.769555 C 60.920446 27.717184 60.510278 28.590558 59.979889 29.389678 C 59.445964 30.17819 58.809497 30.878303 58.063416 31.482947 C 57.320871 32.091127 56.511143 32.582621 55.637769 32.953893 L 66.609754 46.998599 L 58.349826 46.998599 L 48.130994 33.661079 L 44.952195 33.661079 L 44.952195 46.998599 L 37.866195 46.998599 L 37.866195 13.919992 L 52.140736 13.919992 C 53.44903 13.919992 54.683069 14.178115 55.842853 14.694361 C 57.013245 15.203534 58.024521 15.900112 58.873143 16.791166 C 59.732374 17.678684 60.407736 18.721783 60.902766 19.920462 C 61.401332 21.115606 61.652383 22.395612 61.652383 23.76048 Z M 51.253218 27.211546 C 52.15488 27.211546 52.93632 26.879169 53.586931 26.210878 C 54.241078 25.542588 54.566383 24.725789 54.566383 23.76048 C 54.566383 22.826995 54.241078 22.024339 53.586931 21.356049 C 52.93632 20.687759 52.15488 20.355381 51.253218 20.355381 L 44.952195 20.355381 L 44.952195 27.211546 Z M 89.741795 13.919992 L 89.741795 19.888639 L 87.270182 19.888639 L 87.270182 41.07592 L 89.741795 41.07592 L 89.741795 46.998599 L 77.712568 46.998599 L 77.712568 41.07592 L 80.184182 41.07592 L 80.184182 19.888639 L 77.712568 19.888639 L 77.712568 13.919992 Z M 117.467007 40.56321 C 118.955633 40.56321 120.412436 40.223761 121.84095 39.537791 C 123.276537 38.855357 124.726268 37.70618 126.193678 36.086725 L 130.762097 40.414701 C 128.923414 42.783773 126.830145 44.576489 124.482289 45.792848 C 122.137968 46.998599 119.719394 47.603243 117.226564 47.603243 C 114.988322 47.603243 112.887981 47.147108 110.929076 46.238375 C 108.970172 45.319034 107.262319 44.081459 105.812589 42.522115 C 104.36993 40.966306 103.234897 39.155911 102.40749 37.090929 C 101.587154 35.015339 101.176987 32.812456 101.176987 30.482279 C 101.176987 28.152103 101.601298 25.959827 102.453457 23.908989 C 103.309151 21.851079 104.468936 20.047756 105.925738 18.499019 C 107.393148 16.939675 109.122217 15.712708 111.109409 14.80751 C 113.107208 13.902313 115.225229 13.45325 117.467007 13.45325 C 119.546133 13.45325 121.529789 13.842202 123.414438 14.623642 C 125.295552 15.39801 127.137771 16.688624 128.937558 18.488411 L 124.835882 23.488214 C 123.531124 22.271854 122.293549 21.455055 121.123157 21.037816 C 119.959837 20.613504 118.743477 20.401349 117.467007 20.401349 C 116.190537 20.401349 114.984786 20.666543 113.842681 21.196932 C 112.711184 21.730857 111.72466 22.448651 110.883109 23.350313 C 110.038023 24.248438 109.373268 25.309217 108.888846 26.53972 C 108.411496 27.770223 108.171053 29.085588 108.171053 30.482279 C 108.171053 31.878971 108.411496 33.187264 108.888846 34.400088 C 109.373268 35.616447 110.038023 36.684297 110.883109 37.603639 C 111.72466 38.512372 112.711184 39.233701 113.842681 39.767627 C 114.984786 40.298016 116.190537 40.56321 117.467007 40.56321 Z M 142.147785 13.919992 L 162.811749 13.919992 L 162.811749 20.355381 L 149.233785 20.355381 L 149.233785 26.324028 L 161.181686 26.324028 L 161.181686 32.773561 L 149.233785 32.773561 L 149.233785 40.609177 L 162.811749 40.609177 L 162.811749 46.998599 L 142.147785 46.998599 Z M 142.147785 13.919992 " stroke="#ffffff" stroke-width="4.783265" stroke-opacity="1" stroke-miterlimit="4"/><g fill="#00875f" fill-opacity="1"><g transform="translate(97.073758, 232.122641)"><g><path d="M 18.203125 -36.546875 C 19.640625 -36.546875 20.992188 -36.257812 22.265625 -35.6875 C 23.535156 -35.125 24.644531 -34.351562 25.59375 -33.375 C 26.539062 -32.394531 27.285156 -31.242188 27.828125 -29.921875 C 28.378906 -28.597656 28.65625 -27.179688 28.65625 -25.671875 C 28.65625 -24.160156 28.378906 -22.742188 27.828125 -21.421875 C 27.285156 -20.097656 26.539062 -18.9375 25.59375 -17.9375 C 24.644531 -16.9375 23.535156 -16.15625 22.265625 -15.59375 C 20.992188 -15.03125 19.640625 -14.75 18.203125 -14.75 L 10.203125 -14.75 L 10.203125 0 L 2.421875 0 L 2.421875 -36.546875 Z M 17.171875 -21.859375 C 18.160156 -21.859375 19.023438 -22.226562 19.765625 -22.96875 C 20.503906 -23.707031 20.875 -24.609375 20.875 -25.671875 C 20.875 -26.703125 20.503906 -27.585938 19.765625 -28.328125 C 19.023438 -29.066406 18.160156 -29.4375 17.171875 -29.4375 L 10.203125 -29.4375 L 10.203125 -21.859375 Z M 17.171875 -21.859375 "/></g></g></g><g fill="#00875f" fill-opacity="1"><g transform="translate(134.959306, 232.122641)"><g><path d="M 28.71875 -25.671875 C 28.71875 -24.503906 28.550781 -23.394531 28.21875 -22.34375 C 27.894531 -21.289062 27.441406 -20.328125 26.859375 -19.453125 C 26.273438 -18.578125 25.566406 -17.804688 24.734375 -17.140625 C 23.910156 -16.472656 23.019531 -15.929688 22.0625 -15.515625 L 34.171875 0 L 25.046875 0 L 13.765625 -14.75 L 10.265625 -14.75 L 10.265625 0 L 2.421875 0 L 2.421875 -36.546875 L 18.203125 -36.546875 C 19.640625 -36.546875 21.003906 -36.257812 22.296875 -35.6875 C 23.585938 -35.125 24.703125 -34.351562 25.640625 -33.375 C 26.585938 -32.394531 27.335938 -31.242188 27.890625 -29.921875 C 28.441406 -28.597656 28.71875 -27.179688 28.71875 -25.671875 Z M 17.21875 -21.859375 C 18.21875 -21.859375 19.078125 -22.226562 19.796875 -22.96875 C 20.515625 -23.707031 20.875 -24.609375 20.875 -25.671875 C 20.875 -26.703125 20.515625 -27.585938 19.796875 -28.328125 C 19.078125 -29.066406 18.21875 -29.4375 17.21875 -29.4375 L 10.265625 -29.4375 L 10.265625 -21.859375 Z M 17.21875 -21.859375 "/></g></g></g><g fill="#00875f" fill-opacity="1"><g transform="translate(178.978409, 232.122641)"><g><path d="M 15.71875 -36.546875 L 15.71875 -29.953125 L 12.984375 -29.953125 L 12.984375 -6.546875 L 15.71875 -6.546875 L 15.71875 0 L 2.421875 0 L 2.421875 -6.546875 L 5.15625 -6.546875 L 5.15625 -29.953125 L 2.421875 -29.953125 L 2.421875 -36.546875 Z M 15.71875 -36.546875 "/></g></g></g><g fill="#00875f" fill-opacity="1"><g transform="translate(205.679229, 232.122641)"><g><path d="M 19.640625 -7.109375 C 21.285156 -7.109375 22.898438 -7.484375 24.484375 -8.234375 C 26.066406 -8.992188 27.664062 -10.269531 29.28125 -12.0625 L 34.328125 -7.265625 C 32.296875 -4.648438 29.984375 -2.671875 27.390625 -1.328125 C 24.796875 0.00390625 22.125 0.671875 19.375 0.671875 C 16.90625 0.671875 14.585938 0.164062 12.421875 -0.84375 C 10.253906 -1.863281 8.367188 -3.234375 6.765625 -4.953125 C 5.171875 -6.671875 3.921875 -8.671875 3.015625 -10.953125 C 2.109375 -13.234375 1.65625 -15.664062 1.65625 -18.25 C 1.65625 -20.820312 2.125 -23.242188 3.0625 -25.515625 C 4.007812 -27.785156 5.289062 -29.78125 6.90625 -31.5 C 8.519531 -33.21875 10.425781 -34.570312 12.625 -35.5625 C 14.820312 -36.5625 17.160156 -37.0625 19.640625 -37.0625 C 21.941406 -37.0625 24.128906 -36.628906 26.203125 -35.765625 C 28.285156 -34.910156 30.320312 -33.488281 32.3125 -31.5 L 27.78125 -25.984375 C 26.34375 -27.316406 24.976562 -28.210938 23.6875 -28.671875 C 22.394531 -29.140625 21.046875 -29.375 19.640625 -29.375 C 18.234375 -29.375 16.898438 -29.082031 15.640625 -28.5 C 14.390625 -27.914062 13.300781 -27.125 12.375 -26.125 C 11.445312 -25.132812 10.710938 -23.957031 10.171875 -22.59375 C 9.640625 -21.238281 9.375 -19.789062 9.375 -18.25 C 9.375 -16.695312 9.640625 -15.25 10.171875 -13.90625 C 10.710938 -12.570312 11.445312 -11.394531 12.375 -10.375 C 13.300781 -9.363281 14.390625 -8.566406 15.640625 -7.984375 C 16.898438 -7.398438 18.234375 -7.109375 19.640625 -7.109375 Z M 19.640625 -7.109375 "/></g></g></g><g fill="#00875f" fill-opacity="1"><g transform="translate(250.110668, 232.122641)"><g><path d="M 2.46875 -36.546875 L 25.3125 -36.546875 L 25.3125 -29.4375 L 10.3125 -29.4375 L 10.3125 -22.828125 L 23.5 -22.828125 L 23.5 -15.71875 L 10.3125 -15.71875 L 10.3125 -7.0625 L 25.3125 -7.0625 L 25.3125 0 L 2.46875 0 Z M 2.46875 -36.546875 "/></g></g></g><path stroke-linecap="butt" transform="matrix(1.104731, 0, 0, 1.104731, 100.740072, 242.06534)" fill="none" stroke-linejoin="miter" d="M 17.317354 20.834653 C 18.250839 21.389794 18.961561 22.100516 19.449519 22.966818 C 19.937477 23.83312 20.181456 24.837324 20.181456 25.968821 C 20.181456 27.033135 19.926869 28.026731 19.417696 28.946072 C 18.908522 29.868949 18.187193 30.685749 17.253708 31.39647 C 16.408621 32.043545 15.443313 32.538575 14.364855 32.885096 C 13.289932 33.228081 12.151364 33.408413 10.945612 33.429629 C 9.746932 33.429629 8.604828 33.266976 7.512226 32.934599 C 6.426696 32.598686 5.461388 32.096584 4.616301 31.428294 C 3.353974 30.473593 2.487672 29.320881 2.02093 27.970156 L 6.684819 25.799096 C 6.684819 26.02186 6.762609 26.301198 6.91819 26.637111 C 7.077307 26.965953 7.321286 27.291258 7.650127 27.605956 C 7.982504 27.913581 8.413888 28.178776 8.944277 28.401539 C 9.481738 28.624303 10.13942 28.737452 10.913789 28.737452 C 11.539648 28.737452 12.087717 28.656126 12.565067 28.500545 C 13.042417 28.341429 13.441977 28.146952 13.763747 27.913581 C 14.089052 27.68021 14.333031 27.415015 14.495684 27.117997 C 14.661872 26.817444 14.746735 26.513354 14.746735 26.198656 C 14.746735 25.845063 14.630049 25.512686 14.396678 25.20506 C 14.163307 24.890363 13.802642 24.642848 13.314684 24.462515 C 12.427166 24.15489 11.486609 23.893231 10.500085 23.684611 C 9.513561 23.472456 8.551789 23.207261 7.618304 22.885492 C 6.684819 22.560186 5.818516 22.132339 5.015861 21.598414 C 4.216741 21.068025 3.587346 20.32548 3.120603 19.370779 C 2.696292 18.522156 2.484136 17.624031 2.484136 16.66933 C 2.484136 15.60148 2.735187 14.565453 3.233753 13.568321 C 3.732319 12.571189 4.414753 11.726103 5.284591 11.036597 C 6.108462 10.393058 7.03134 9.898028 8.049687 9.555043 C 9.075106 9.208522 10.153564 9.035261 11.281525 9.035261 C 12.413022 9.035261 13.498552 9.204986 14.527507 9.540899 C 15.563534 9.86974 16.493483 10.361234 17.317354 11.004773 C 18.116474 11.602345 18.749405 12.302459 19.216148 13.105114 L 15.415025 15.700486 C 14.948283 15.053411 14.364855 14.540701 13.664741 14.155285 C 12.964627 13.762797 12.183187 13.568321 11.32042 13.568321 C 10.118205 13.568321 9.188256 13.837052 8.530573 14.374513 C 7.879962 14.904902 7.554657 15.60148 7.554657 16.464246 C 7.554657 16.867342 7.734989 17.224471 8.09919 17.539168 C 8.466926 17.846794 8.944277 18.126132 9.531241 18.370111 C 10.121741 18.61409 10.782959 18.829782 11.518432 19.020722 C 12.25037 19.211662 12.975235 19.399066 13.696564 19.590007 C 14.424965 19.773875 15.107399 19.968351 15.747402 20.166363 C 16.394477 20.367911 16.917795 20.590674 17.317354 20.834653 Z M 54.250123 28.401539 C 55.314437 28.401539 56.354 28.15756 57.375884 27.669602 C 58.401303 27.181644 59.43733 26.361309 60.483964 25.20506 L 63.747626 28.295461 C 62.435797 29.989171 60.940099 31.269177 59.264069 32.139015 C 57.588039 32.998246 55.85897 33.429629 54.080399 33.429629 C 52.478623 33.429629 50.97939 33.104324 49.579162 32.453713 C 48.178935 31.799566 46.962575 30.915584 45.926548 29.801767 C 44.894057 28.691485 44.08433 27.397336 43.49383 25.919318 C 42.906866 24.4413 42.613384 22.867812 42.613384 21.20239 C 42.613384 19.536968 42.917474 17.970552 43.525653 16.506677 C 44.137369 15.035731 44.964776 13.748653 46.007875 12.641908 C 47.054509 11.528091 48.288548 10.65118 49.709991 10.004106 C 51.138506 9.357031 52.651884 9.035261 54.250123 9.035261 C 55.738749 9.035261 57.15312 9.3146 58.496773 9.873276 C 59.843961 10.428417 61.159327 11.347758 62.446404 12.6313 L 59.51512 16.206123 C 58.581635 15.336285 57.697653 14.752857 56.863174 14.455839 C 56.032231 14.151749 55.162393 13.999704 54.250123 13.999704 C 53.337854 13.999704 52.478623 14.190644 51.661824 14.568989 C 50.855632 14.947333 50.148447 15.460043 49.547339 16.107117 C 48.946231 16.74712 48.472417 17.507345 48.12236 18.384255 C 47.782911 19.264701 47.60965 20.201722 47.60965 21.20239 C 47.60965 22.199521 47.782911 23.133006 48.12236 23.999309 C 48.472417 24.869147 48.946231 25.629372 49.547339 26.287054 C 50.148447 26.937665 50.855632 27.453911 51.661824 27.832255 C 52.478623 28.214135 53.337854 28.401539 54.250123 28.401539 Z M 101.108242 9.371174 L 110.977017 32.998246 L 105.510472 32.998246 L 103.378308 27.931261 L 93.343344 27.931261 L 91.243003 32.998246 L 85.744634 32.998246 L 95.61341 9.371174 Z M 101.472442 23.334554 L 98.371434 15.902034 L 95.281032 23.334554 Z M 149.737861 9.371174 L 154.776558 9.371174 L 154.776558 32.998246 L 149.974768 32.998246 L 138.606759 17.570992 L 138.606759 32.998246 L 133.578669 32.998246 L 133.578669 9.371174 L 138.306205 9.371174 L 149.737861 24.904506 Z M 149.737861 9.371174 " stroke="#ffffff" stroke-width="4.708286" stroke-opacity="1" stroke-miterlimit="4"/><g fill="#00875f" fill-opacity="1"><g transform="translate(101.534098, 278.521469)"><g><path d="M 18.34375 -13.4375 C 19.375 -12.820312 20.15625 -12.035156 20.6875 -11.078125 C 21.226562 -10.128906 21.5 -9.023438 21.5 -7.765625 C 21.5 -6.585938 21.21875 -5.488281 20.65625 -4.46875 C 20.09375 -3.457031 19.296875 -2.554688 18.265625 -1.765625 C 17.335938 -1.054688 16.273438 -0.507812 15.078125 -0.125 C 13.890625 0.25 12.632812 0.453125 11.3125 0.484375 C 9.976562 0.484375 8.707031 0.300781 7.5 -0.0625 C 6.300781 -0.4375 5.238281 -0.992188 4.3125 -1.734375 C 2.90625 -2.785156 1.945312 -4.0625 1.4375 -5.5625 L 6.59375 -7.953125 C 6.59375 -7.710938 6.675781 -7.40625 6.84375 -7.03125 C 7.019531 -6.664062 7.289062 -6.3125 7.65625 -5.96875 C 8.03125 -5.625 8.507812 -5.328125 9.09375 -5.078125 C 9.6875 -4.835938 10.410156 -4.71875 11.265625 -4.71875 C 11.953125 -4.71875 12.5625 -4.800781 13.09375 -4.96875 C 13.625 -5.144531 14.066406 -5.359375 14.421875 -5.609375 C 14.773438 -5.867188 15.039062 -6.164062 15.21875 -6.5 C 15.40625 -6.832031 15.5 -7.171875 15.5 -7.515625 C 15.5 -7.910156 15.367188 -8.28125 15.109375 -8.625 C 14.859375 -8.96875 14.460938 -9.234375 13.921875 -9.421875 C 12.941406 -9.765625 11.90625 -10.050781 10.8125 -10.28125 C 9.71875 -10.519531 8.65625 -10.816406 7.625 -11.171875 C 6.59375 -11.535156 5.632812 -12.007812 4.75 -12.59375 C 3.863281 -13.1875 3.164062 -14.007812 2.65625 -15.0625 C 2.1875 -16 1.953125 -16.992188 1.953125 -18.046875 C 1.953125 -19.222656 2.226562 -20.363281 2.78125 -21.46875 C 3.332031 -22.570312 4.085938 -23.503906 5.046875 -24.265625 C 5.953125 -24.984375 6.96875 -25.53125 8.09375 -25.90625 C 9.226562 -26.289062 10.421875 -26.484375 11.671875 -26.484375 C 12.921875 -26.484375 14.117188 -26.296875 15.265625 -25.921875 C 16.410156 -25.554688 17.4375 -25.019531 18.34375 -24.3125 C 19.226562 -23.644531 19.925781 -22.867188 20.4375 -21.984375 L 16.234375 -19.109375 C 15.722656 -19.828125 15.078125 -20.398438 14.296875 -20.828125 C 13.523438 -21.253906 12.664062 -21.46875 11.71875 -21.46875 C 10.382812 -21.46875 9.351562 -21.171875 8.625 -20.578125 C 7.90625 -19.992188 7.546875 -19.222656 7.546875 -18.265625 C 7.546875 -17.828125 7.75 -17.4375 8.15625 -17.09375 C 8.5625 -16.75 9.085938 -16.441406 9.734375 -16.171875 C 10.390625 -15.898438 11.117188 -15.660156 11.921875 -15.453125 C 12.734375 -15.242188 13.539062 -15.035156 14.34375 -14.828125 C 15.144531 -14.617188 15.898438 -14.398438 16.609375 -14.171875 C 17.316406 -13.953125 17.894531 -13.707031 18.34375 -13.4375 Z M 18.34375 -13.4375 "/></g></g></g><g fill="#00875f" fill-opacity="1"><g transform="translate(146.640147, 278.521469)"><g><path d="M 14.03125 -5.078125 C 15.207031 -5.078125 16.359375 -5.347656 17.484375 -5.890625 C 18.617188 -6.429688 19.765625 -7.34375 20.921875 -8.625 L 24.53125 -5.1875 C 23.082031 -3.320312 21.429688 -1.910156 19.578125 -0.953125 C 17.722656 0.00390625 15.8125 0.484375 13.84375 0.484375 C 12.082031 0.484375 10.425781 0.125 8.875 -0.59375 C 7.332031 -1.320312 5.988281 -2.300781 4.84375 -3.53125 C 3.695312 -4.757812 2.796875 -6.191406 2.140625 -7.828125 C 1.492188 -9.460938 1.171875 -11.195312 1.171875 -13.03125 C 1.171875 -14.875 1.507812 -16.601562 2.1875 -18.21875 C 2.863281 -19.84375 3.78125 -21.269531 4.9375 -22.5 C 6.09375 -23.726562 7.453125 -24.695312 9.015625 -25.40625 C 10.585938 -26.125 12.257812 -26.484375 14.03125 -26.484375 C 15.675781 -26.484375 17.238281 -26.175781 18.71875 -25.5625 C 20.207031 -24.945312 21.664062 -23.925781 23.09375 -22.5 L 19.84375 -18.5625 C 18.8125 -19.519531 17.835938 -20.160156 16.921875 -20.484375 C 16.003906 -20.816406 15.039062 -20.984375 14.03125 -20.984375 C 13.019531 -20.984375 12.066406 -20.773438 11.171875 -20.359375 C 10.273438 -19.941406 9.492188 -19.378906 8.828125 -18.671875 C 8.171875 -17.960938 7.648438 -17.117188 7.265625 -16.140625 C 6.890625 -15.171875 6.703125 -14.132812 6.703125 -13.03125 C 6.703125 -11.925781 6.890625 -10.894531 7.265625 -9.9375 C 7.648438 -8.976562 8.171875 -8.132812 8.828125 -7.40625 C 9.492188 -6.6875 10.273438 -6.117188 11.171875 -5.703125 C 12.066406 -5.285156 13.019531 -5.078125 14.03125 -5.078125 Z M 14.03125 -5.078125 "/></g></g></g><g fill="#00875f" fill-opacity="1"><g transform="translate(194.654848, 278.521469)"><g><path d="M 17.78125 -26.109375 L 28.6875 0 L 22.65625 0 L 20.296875 -5.59375 L 9.203125 -5.59375 L 6.890625 0 L 0.8125 0 L 11.71875 -26.109375 Z M 18.1875 -10.6875 L 14.765625 -18.890625 L 11.34375 -10.6875 Z M 18.1875 -10.6875 "/></g></g></g><g fill="#00875f" fill-opacity="1"><g transform="translate(246.572308, 278.521469)"><g><path d="M 19.59375 -26.109375 L 25.15625 -26.109375 L 25.15625 0 L 19.84375 0 L 7.296875 -17.046875 L 7.296875 0 L 1.734375 0 L 1.734375 -26.109375 L 6.953125 -26.109375 L 19.59375 -8.953125 Z M 19.59375 -26.109375 "/></g></g></g><path fill="#00875f" d="M 171.832031 150.921875 C 172.007812 151.039062 172.183594 151.167969 172.363281 151.28125 C 174.085938 152.355469 175.882812 152.808594 177.425781 152.570312 C 179.308594 152.269531 180.597656 150.914062 180.871094 148.929688 C 181.070312 147.539062 180.066406 145.636719 178.878906 143.699219 L 171.832031 150.921875 " fill-opacity="1" fill-rule="nonzero"/><path fill="#00875f" d="M 180.695312 131.476562 C 179.902344 131.773438 179.285156 132.144531 178.863281 132.578125 C 177.511719 133.996094 178.035156 135.824219 179.484375 138.390625 L 186.292969 131.414062 C 184.445312 130.886719 182.550781 130.796875 180.695312 131.476562 " fill-opacity="1" fill-rule="nonzero"/><path fill="#00875f" d="M 195.71875 136.996094 C 193.90625 135.597656 191.796875 133.96875 189.542969 132.761719 L 181.230469 141.285156 C 182.894531 143.949219 184.488281 146.695312 184.117188 149.382812 C 183.632812 152.816406 181.265625 155.273438 177.929688 155.792969 C 175.613281 156.164062 173.023438 155.539062 170.636719 154.058594 C 170.25 153.820312 169.871094 153.566406 169.507812 153.300781 L 166.496094 156.390625 L 164.152344 154.109375 L 166.988281 151.210938 C 166.769531 151.003906 166.546875 150.800781 166.335938 150.585938 C 164.425781 148.683594 162.707031 146.472656 160.914062 144.085938 L 163.527344 142.117188 C 165.4375 144.660156 167.253906 146.976562 169.269531 148.863281 L 177.109375 140.828125 C 175.09375 137.4375 173.402344 133.5625 176.5 130.324219 C 177.269531 129.519531 178.296875 128.878906 179.566406 128.410156 C 182.78125 127.230469 185.917969 127.679688 188.8125 128.832031 L 192.757812 124.78125 L 195.101562 127.070312 L 191.90625 130.339844 C 194.089844 131.609375 196.0625 133.132812 197.710938 134.40625 Z M 207.742188 119.691406 C 208.320312 120.265625 208.972656 120.710938 209.414062 120.984375 C 209.988281 121.332031 210.613281 121.648438 211.28125 121.921875 C 211.183594 120.40625 211.085938 118.738281 210.972656 116.90625 L 210.832031 114.523438 C 210.796875 113.824219 210.777344 113.445312 210.761719 113.304688 C 210.746094 113.234375 210.734375 113.148438 210.71875 113.042969 C 210.496094 111.167969 208.980469 109.730469 207.113281 109.625 L 185.492188 108.347656 C 184.355469 108.277344 183.238281 108.707031 182.425781 109.519531 L 147.355469 144.597656 C 145.796875 146.140625 145.78125 148.652344 147.3125 150.183594 L 170.203125 173.074219 C 171.734375 174.605469 174.238281 174.585938 175.789062 173.035156 L 211.21875 137.605469 C 211.597656 137.226562 211.828125 136.757812 211.871094 136.277344 L 211.878906 136.1875 C 212.082031 134.929688 211.96875 132.683594 211.6875 128.15625 C 209.746094 127.628906 207.941406 126.886719 206.382812 125.925781 C 205.335938 125.292969 204.417969 124.570312 203.636719 123.789062 C 202.753906 122.90625 202.070312 121.945312 201.566406 120.941406 C 198.90625 119.601562 197.859375 115.796875 200.339844 113.324219 C 202.234375 111.429688 205.273438 111.542969 207.054688 113.324219 C 208.804688 115.074219 208.8125 117.675781 207.546875 119.460938 C 207.609375 119.535156 207.667969 119.613281 207.742188 119.691406 " fill-opacity="1" fill-rule="nonzero"/><g clip-path="url(#b8abe6d45f)"><path fill="#00875f" d="M 213.808594 128.632812 C 214.082031 132.980469 214.167969 135.078125 213.949219 136.476562 C 213.859375 137.445312 213.410156 138.363281 212.691406 139.078125 L 177.265625 174.507812 C 174.898438 176.875 171.066406 176.894531 168.730469 174.550781 L 145.835938 151.660156 C 143.492188 149.3125 143.515625 145.480469 145.878906 143.117188 L 180.949219 108.046875 C 182.183594 106.808594 183.882812 106.164062 185.617188 106.261719 L 207.230469 107.539062 C 210.109375 107.707031 212.445312 109.921875 212.796875 112.796875 C 212.796875 112.820312 212.796875 112.832031 212.796875 112.839844 C 212.832031 112.972656 212.847656 113.183594 212.917969 114.40625 L 213.058594 116.785156 C 213.183594 118.96875 213.304688 120.890625 213.414062 122.625 C 214.230469 122.835938 215.078125 122.992188 215.957031 123.097656 C 215.789062 120.695312 215.589844 117.902344 215.382812 114.601562 C 215.023438 109.105469 215.148438 110.875 215.066406 110.1875 C 214.734375 107.527344 212.574219 105.441406 209.871094 105.273438 L 185.535156 103.6875 C 183.917969 103.582031 182.332031 104.179688 181.1875 105.320312 L 141.949219 144.570312 C 139.75 146.765625 139.75 150.324219 141.949219 152.523438 L 167.863281 178.4375 C 170.0625 180.636719 173.621094 180.636719 175.820312 178.4375 L 211.992188 142.265625 L 213.746094 140.503906 L 215.449219 138.796875 C 216.054688 138.203125 216.449219 137.421875 216.511719 136.582031 C 216.519531 136.574219 216.519531 136.566406 216.519531 136.558594 C 216.730469 135.210938 216.644531 133.050781 216.371094 128.949219 C 215.5 128.886719 214.644531 128.78125 213.808594 128.632812 " fill-opacity="1" fill-rule="nonzero"/></g><g clip-path="url(#e3012a477b)"><path fill="#00875f" d="M 232.664062 110.8125 C 231.941406 110.089844 231.082031 109.421875 230.101562 108.816406 C 226.96875 106.894531 222.851562 105.839844 218.492188 105.839844 C 217.421875 105.839844 216.558594 106.703125 216.558594 107.777344 C 216.558594 108.3125 216.777344 108.796875 217.128906 109.140625 C 217.472656 109.492188 217.964844 109.710938 218.492188 109.710938 C 222.148438 109.710938 225.546875 110.566406 228.078125 112.109375 C 228.621094 112.441406 229.308594 112.925781 229.925781 113.550781 C 230.804688 114.417969 231.546875 115.578125 231.546875 116.960938 C 231.546875 119.328125 229.371094 121.011719 228.078125 121.804688 C 225.550781 123.355469 222.148438 124.210938 218.492188 124.210938 C 217.65625 124.210938 216.835938 124.164062 216.027344 124.070312 C 215.148438 123.972656 214.300781 123.832031 213.484375 123.628906 C 212.742188 123.453125 212.03125 123.234375 211.351562 122.976562 C 210.472656 122.648438 209.652344 122.261719 208.910156 121.804688 C 208.367188 121.472656 207.679688 120.996094 207.0625 120.371094 C 207.007812 120.316406 206.957031 120.261719 206.902344 120.195312 C 206.417969 119.683594 205.988281 119.085938 205.730469 118.414062 C 206.226562 117.957031 206.550781 117.304688 206.550781 116.574219 C 206.550781 115.207031 205.433594 114.089844 204.058594 114.089844 C 202.691406 114.089844 201.574219 115.207031 201.574219 116.574219 C 201.574219 116.644531 201.585938 116.699219 201.59375 116.769531 C 201.585938 116.828125 201.574219 116.890625 201.574219 116.960938 C 201.574219 118.511719 202.042969 120.007812 202.921875 121.375 C 203.3125 121.972656 203.769531 122.554688 204.316406 123.101562 C 205.042969 123.832031 205.898438 124.5 206.886719 125.101562 C 208.285156 125.960938 209.890625 126.632812 211.617188 127.132812 C 212.304688 127.328125 213.015625 127.511719 213.746094 127.644531 C 214.574219 127.800781 215.429688 127.902344 216.300781 127.972656 C 217.023438 128.039062 217.753906 128.078125 218.492188 128.078125 C 222.851562 128.078125 226.96875 127.019531 230.101562 125.101562 C 233.527344 123.003906 235.414062 120.113281 235.414062 116.960938 C 235.414062 114.714844 234.453125 112.601562 232.664062 110.8125 " fill-opacity="1" fill-rule="nonzero"/></g></svg>